<svg width="44" height="45" viewBox="0 0 44 45" fill="none" xmlns="http://www.w3.org/2000/svg">
<circle cx="22" cy="22.3572" r="22" fill="#D9D9D9"/>
<path d="M13.0085 26.2955C12.2585 26.2955 11.6145 26.0303 11.0767 25.5C10.5464 24.9621 10.2812 24.3182 10.2812 23.5682C10.2812 22.8258 10.5464 22.1894 11.0767 21.6591C11.6145 21.1288 12.2585 20.8636 13.0085 20.8636C13.7358 20.8636 14.3721 21.1288 14.9176 21.6591C15.463 22.1894 15.7358 22.8258 15.7358 23.5682C15.7358 24.0682 15.607 24.5265 15.3494 24.9432C15.0994 25.3523 14.7699 25.6818 14.3608 25.9318C13.9517 26.1742 13.5009 26.2955 13.0085 26.2955ZM21.9957 26.2955C21.2457 26.2955 20.6018 26.0303 20.0639 25.5C19.5336 24.9621 19.2685 24.3182 19.2685 23.5682C19.2685 22.8258 19.5336 22.1894 20.0639 21.6591C20.6018 21.1288 21.2457 20.8636 21.9957 20.8636C22.723 20.8636 23.3594 21.1288 23.9048 21.6591C24.4503 22.1894 24.723 22.8258 24.723 23.5682C24.723 24.0682 24.5942 24.5265 24.3366 24.9432C24.0866 25.3523 23.7571 25.6818 23.348 25.9318C22.9389 26.1742 22.4882 26.2955 21.9957 26.2955ZM30.983 26.2955C30.233 26.2955 29.5891 26.0303 29.0512 25.5C28.5209 24.9621 28.2557 24.3182 28.2557 23.5682C28.2557 22.8258 28.5209 22.1894 29.0512 21.6591C29.5891 21.1288 30.233 20.8636 30.983 20.8636C31.7103 20.8636 32.3466 21.1288 32.8921 21.6591C33.4375 22.1894 33.7103 22.8258 33.7103 23.5682C33.7103 24.0682 33.5815 24.5265 33.3239 24.9432C33.0739 25.3523 32.7444 25.6818 32.3353 25.9318C31.9262 26.1742 31.4754 26.2955 30.983 26.2955Z" fill="#212A3E"/>
</svg>
